<svg width="22" height="22" viewBox="0 0 22 22" fill="none" xmlns="http://www.w3.org/2000/svg">
<g clip-path="url(#clip0_1_1563)">
<path d="M10.8563 21.7126C16.8521 21.7126 21.7126 16.8521 21.7126 10.8563C21.7126 4.86053 16.8521 0 10.8563 0C4.86053 0 0 4.86053 0 10.8563C0 16.8521 4.86053 21.7126 10.8563 21.7126Z" fill="#F0F0F0"/>
<path d="M10.8565 -0.000244141C6.18863 -0.000244141 2.20933 2.94588 0.675415 7.07997H21.0375C19.5036 2.94588 15.5243 -0.000244141 10.8565 -0.000244141Z" fill="#D80027"/>
<path d="M10.8565 21.7129C15.5243 21.7129 19.5036 18.7668 21.0375 14.6327H0.675415C2.20933 18.7668 6.18863 21.7129 10.8565 21.7129Z" fill="black"/>
<path d="M14.6324 9.67621H11.8003C11.8003 9.15485 11.3776 8.73218 10.8563 8.73218C10.3349 8.73218 9.91223 9.15485 9.91223 9.67621H7.08014C7.08014 10.1976 7.53428 10.6202 8.05564 10.6202H8.02417C8.02417 11.1416 8.4468 11.5643 8.9682 11.5643C8.9682 12.0857 9.39083 12.5083 9.91223 12.5083H11.8003C12.3217 12.5083 12.7443 12.0857 12.7443 11.5643C13.2657 11.5643 13.6883 11.1416 13.6883 10.6202H13.6569C14.1783 10.6202 14.6324 10.1976 14.6324 9.67621Z" fill="#FF9811"/>
</g>
<defs>
<clipPath id="clip0_1_1563">
<rect width="21.7126" height="21.7126" fill="white"/>
</clipPath>
</defs>
</svg>
