<svg width="22" height="22" viewBox="0 0 22 22" fill="none" xmlns="http://www.w3.org/2000/svg">
<g clip-path="url(#clip0_1_1561)">
<path d="M10.8563 21.7126C16.8521 21.7126 21.7126 16.8521 21.7126 10.8563C21.7126 4.86053 16.8521 0 10.8563 0C4.86053 0 0 4.86053 0 10.8563C0 16.8521 4.86053 21.7126 10.8563 21.7126Z" fill="#F0F0F0"/>
<path d="M2.48151 3.94724H19.2311C18.6124 3.19811 17.8949 2.5338 17.099 1.97339H4.61362C3.81768 2.53372 3.10019 3.19807 2.48151 3.94724Z" fill="#F0F0F0"/>
<path d="M0 10.8568C0 11.1896 0.015818 11.5186 0.0451215 11.8437H21.6675C21.6968 11.5186 21.7126 11.1896 21.7126 10.8568C21.7126 10.524 21.6968 10.195 21.6675 9.86987H0.0451215C0.015818 10.195 0 10.524 0 10.8568Z" fill="#F0F0F0"/>
<path d="M1.1841 15.7911H20.529C20.8487 15.1657 21.1094 14.5054 21.304 13.8173H0.409058C0.603665 14.5054 0.864471 15.1658 1.1841 15.7911Z" fill="#F0F0F0"/>
<path d="M4.61362 19.7386H17.0989C17.8949 19.1782 18.6124 18.5139 19.231 17.7648H2.48151C3.10019 18.5138 3.81768 19.1782 4.61362 19.7386Z" fill="#F0F0F0"/>
<path d="M0.408997 7.89597H21.304C21.1094 7.20778 20.8486 6.54742 20.529 5.92212H1.18408C0.864452 6.54742 0.603646 7.20778 0.408997 7.89597Z" fill="#F0F0F0"/>
<path d="M5.19153 1.97385H17.0983C15.3325 0.730552 13.1795 0 10.8557 0C9.43965 0 6.95737 0.730552 5.19153 1.97385Z" fill="#D80027"/>
<path d="M10.3843 5.92136H20.5287C20.1677 5.21515 19.7317 4.55364 19.231 3.94751H10.3843V5.92136Z" fill="#D80027"/>
<path d="M10.3843 9.86874H21.6674C21.6064 9.19099 21.4836 8.53096 21.3038 7.8949H10.3843V9.86874Z" fill="#D80027"/>
<path d="M0.408425 13.8178H21.3034C21.4833 13.1818 21.606 12.5217 21.6671 11.844H0.0447388C0.105805 12.5217 0.228532 13.1818 0.408425 13.8178Z" fill="#D80027"/>
<path d="M2.48126 17.7652H19.2308C19.7314 17.159 20.1675 16.4975 20.5285 15.7914H1.18359C1.54461 16.4976 1.98064 17.1591 2.48126 17.7652Z" fill="#D80027"/>
<path d="M10.8556 21.713C13.1794 21.713 15.3325 20.9824 17.0983 19.7391H4.61298C6.37882 20.9824 8.53184 21.713 10.8556 21.713Z" fill="#D80027"/>
<path d="M0.408809 7.89513C0.228917 8.53124 0.106233 9.19122 0.045166 9.86898H10.8563V-0.000366211C5.88703 -0.000366211 1.69765 3.33845 0.408809 7.89513Z" fill="#0052B4"/>
<path d="M6.46279 2.83215L7.16569 4.99557H9.44068L7.60028 6.33276L8.30314 8.4963L6.46279 7.15919L4.62235 8.4963L5.32538 6.33276L3.48499 4.99557H5.75984L6.46279 2.83215Z" fill="#F0F0F0"/>
</g>
<defs>
<clipPath id="clip0_1_1561">
<rect width="21.7126" height="21.7126" fill="white"/>
</clipPath>
</defs>
</svg>
